<svg xmlns="http://www.w3.org/2000/svg" width="327" height="292" fill="none" viewBox="0 0 327 292"><rect width="327" height="292" fill="#252525" rx="16"/><g clip-path="url(#clip0)"><path fill="#fff" fill-rule="evenodd" d="M52.3712 173.9L77.6077 173.9L77.6077 166.414L52.3712 166.414L52.3712 173.9ZM65.0502 163.749C62.7744 163.749 60.6385 163.327 58.6481 162.48C56.71 161.672 54.9483 160.497 53.4613 159.019C51.9768 157.535 50.795 155.78 49.9813 153.849C49.1254 151.855 48.6911 149.707 48.7053 147.538C48.6875 145.35 49.1225 143.181 49.9831 141.168C50.796 139.236 51.9779 137.48 53.4631 135.998C54.9508 134.52 56.7115 133.344 58.6481 132.533C60.6526 131.685 62.8098 131.253 64.9876 131.264C67.2248 131.264 69.3404 131.689 71.3326 132.534C73.2685 133.347 75.029 134.523 76.5177 135.999C78.0019 137.483 79.1836 139.239 79.9977 141.169C80.8551 143.183 81.2899 145.351 81.2755 147.538C81.2755 149.768 80.8465 151.869 79.9977 153.849C79.1827 155.779 78.0011 157.535 76.5177 159.019C75.0446 160.485 73.3267 161.64 71.3603 162.48C69.3674 163.332 67.219 163.764 65.0502 163.749ZM64.9876 141.103C63.2053 141.103 61.7267 141.723 60.5446 142.961C59.3607 144.2 58.7733 145.725 58.7733 147.538C58.7733 149.311 59.3626 150.809 60.5446 152.025C61.7267 153.246 63.2311 153.849 65.0502 153.849C66.8289 153.849 68.3148 153.244 69.4969 152.025C70.679 150.809 71.2645 149.311 71.2645 147.538C71.2729 146.668 71.1038 145.805 70.7674 145.001C70.4527 144.246 70.0015 143.554 69.4361 142.961C68.8581 142.369 68.1662 141.9 67.4019 141.581C66.6375 141.262 65.8164 141.099 64.9876 141.103ZM86.9245 173.9L86.9245 132.687L102.839 132.687C104.827 132.687 106.698 133.068 108.462 133.829C110.183 134.563 111.746 135.621 113.065 136.945C114.375 138.272 115.418 139.835 116.14 141.551C116.89 143.317 117.27 145.217 117.258 147.135C117.258 149.029 116.895 150.84 116.171 152.565C114.724 156.044 111.984 158.833 108.523 160.35C106.762 161.131 104.868 161.521 102.839 161.521L97.5542 161.521L97.5542 173.896L86.9264 173.896L86.9245 173.9ZM97.556 151.376L102.529 151.376C103.067 151.382 103.601 151.279 104.098 151.072C104.595 150.866 105.044 150.561 105.418 150.177C106.228 149.377 106.628 148.365 106.628 147.137C106.628 145.91 106.249 144.886 105.479 144.064C104.713 143.245 103.728 142.836 102.529 142.836L97.556 142.836L97.556 151.376ZM206.248 173.9L206.248 131.821C206.539 132.069 207.242 132.696 208.365 133.706C209.483 134.718 210.831 135.926 212.402 137.325C213.98 138.729 215.655 140.225 217.436 141.813L222.503 146.332C224.099 147.753 225.486 148.979 226.666 150.01C227.844 151.044 228.603 151.706 228.936 151.993L228.936 132.628L239.314 132.628L239.314 174.703C238.986 174.415 238.227 173.746 237.049 172.694C235.874 171.641 234.499 170.417 232.934 169.012C231.359 167.61 229.689 166.116 227.907 164.526C226.13 162.937 224.469 161.442 222.924 160.036C221.583 158.827 220.239 157.621 218.892 156.419C218.185 155.784 217.473 155.154 216.756 154.531L216.756 173.9L206.248 173.9ZM247.64 173.9L247.64 132.687L280.641 132.687L280.641 142.834L258.144 142.834L258.144 148.217L275.483 148.217L275.483 158.368L258.142 158.368L258.142 163.747L280.645 163.747L280.645 173.9L247.64 173.9ZM178.41 174.894C175.385 174.894 172.556 174.323 169.929 173.192C167.359 172.097 165.019 170.533 163.028 168.58C161.043 166.612 159.46 164.279 158.366 161.712C157.226 159.072 156.661 156.265 156.661 153.295C156.661 150.281 157.226 147.469 158.366 144.847C159.467 142.29 161.037 139.961 162.997 137.978C164.973 136 167.316 134.424 169.896 133.336C172.567 132.199 175.443 131.62 178.347 131.634C181.372 131.634 184.201 132.203 186.836 133.336C189.408 134.435 191.747 136.01 193.729 137.978C195.707 139.952 197.289 142.283 198.391 144.847C199.533 147.469 200.1 150.281 200.1 153.295C200.1 156.265 199.531 159.07 198.391 161.71C197.305 164.274 195.734 166.606 193.762 168.58C191.778 170.541 189.436 172.106 186.861 173.192C184.191 174.329 181.314 174.908 178.41 174.894ZM178.347 141.908C176.766 141.908 175.296 142.207 173.941 142.803C172.591 143.408 171.409 144.209 170.41 145.217C169.394 146.251 168.588 147.47 168.036 148.807C167.443 150.229 167.145 151.756 167.16 153.295C167.143 154.824 167.442 156.34 168.036 157.75C168.598 159.083 169.403 160.3 170.411 161.34C171.421 162.378 172.634 163.198 173.976 163.749C175.38 164.334 176.888 164.63 178.41 164.618C179.993 164.618 181.472 164.328 182.849 163.749C184.189 163.198 185.401 162.378 186.408 161.34C187.414 160.304 188.209 159.085 188.752 157.75C189.327 156.335 189.614 154.821 189.599 153.295C189.599 151.682 189.305 150.189 188.725 148.807C188.17 147.47 187.363 146.252 186.348 145.217C185.326 144.193 184.116 143.374 182.785 142.803C181.384 142.202 179.873 141.897 178.347 141.908ZM136.144 174.894C134.035 174.894 132.096 174.54 130.336 173.838C128.631 173.171 127.053 172.219 125.67 171.023C124.346 169.868 123.214 168.509 122.319 166.999C121.455 165.568 120.815 164.013 120.423 162.388C121.038 162.285 121.651 162.163 122.258 162.022C123.186 161.815 124.192 161.595 125.273 161.369C126.348 161.144 127.363 160.929 128.314 160.72C128.959 160.584 129.603 160.44 130.244 160.287C130.741 161.772 131.55 162.959 132.667 163.846C133.781 164.731 135.111 165.177 136.646 165.177C138.217 165.177 139.491 164.724 140.463 163.817C141.439 162.907 142.048 161.668 142.297 160.1C142.131 160.058 141.524 159.833 140.463 159.418C139.406 159.01 138.125 158.515 136.613 157.935C134.978 157.312 133.341 156.693 131.702 156.078L126.731 154.221C125.177 153.647 123.822 153.139 122.656 152.708C121.928 152.441 121.204 152.162 120.485 151.869C120.432 151.334 120.391 150.799 120.362 150.263C120.32 149.603 120.301 148.943 120.301 148.279C120.287 146.077 120.697 143.892 121.511 141.844C122.284 139.88 123.434 138.084 124.895 136.557C126.366 135.039 128.118 133.818 130.054 132.963C132.045 132.078 134.238 131.634 136.646 131.634C138.754 131.634 140.701 131.975 142.483 132.659C144.211 133.307 145.819 134.237 147.241 135.409C148.615 136.551 149.79 137.91 150.721 139.431C151.644 140.94 152.306 142.593 152.678 144.321L150.785 144.754C149.894 144.961 148.926 145.168 147.894 145.373C146.856 145.58 145.86 145.786 144.906 145.993C143.954 146.2 143.275 146.343 142.859 146.426C142.527 144.941 141.84 143.723 140.806 142.772C139.774 141.826 138.462 141.351 136.891 141.351C135.192 141.351 133.825 141.796 132.792 142.68C131.754 143.571 131.135 144.651 130.924 145.929C131.172 146.013 131.859 146.27 132.977 146.706C134.1 147.137 135.42 147.641 136.956 148.219C138.487 148.798 140.126 149.414 141.866 150.076C143.602 150.738 145.232 151.354 146.742 151.933C148.255 152.51 149.541 153.007 150.597 153.418C151.653 153.83 152.264 154.06 152.43 154.1C152.512 154.551 152.592 155.233 152.678 156.14C152.761 157.048 152.803 157.937 152.803 158.802C152.803 161.112 152.387 163.248 151.56 165.206C150.763 167.119 149.577 168.846 148.077 170.281C146.547 171.728 144.755 172.873 142.796 173.654C140.763 174.479 138.548 174.894 136.144 174.894Z" clip-rule="evenodd"/></g><defs><clipPath id="clip0"><rect width="44" height="232" fill="#fff" transform="translate(280 131) rotate(90)"/></clipPath></defs></svg>