<svg xmlns="http://www.w3.org/2000/svg" width="327" height="292" fill="none" viewBox="0 0 327 292"><rect width="327" height="292" fill="#252525" rx="16"/><g clip-path="url(#clip0)"><path fill="#fff" d="M235.962 149.379C235.591 149.501 235.261 149.746 234.891 149.787C232.09 149.828 229.247 149.828 226.446 149.787C226.034 149.787 225.664 149.501 224.963 149.215C225.581 148.93 225.952 148.603 226.282 148.603C227.064 148.644 227.764 148.317 228.218 147.827C228.629 147.337 228.918 146.561 228.959 145.908C229.041 144.112 229.659 142.397 229.453 140.56C229.371 139.947 229.7 139.335 229.824 138.682C229.948 138.11 229.618 137.498 230.154 136.967C230.359 136.763 230.318 136.191 230.236 135.783C229.989 133.905 230.401 132.027 230.73 130.271C230.977 129.005 231.101 127.78 231.019 126.556C230.977 125.657 231.43 124.922 231.472 124.065C231.554 123.289 231.183 122.514 231.842 121.738C232.09 121.452 231.884 120.799 231.884 120.35C231.884 119.247 231.554 118.022 231.966 117.124C232.378 116.185 232.048 115.205 232.625 114.307C232.955 113.776 232.666 112.837 232.707 112.102C232.749 111.735 232.955 111.408 233.078 111.041C234.232 111.286 234.602 111.98 234.973 112.96C235.756 114.96 236.868 116.798 237.815 118.716C238.145 119.411 238.227 120.309 238.721 120.758C239.38 121.33 239.01 122.187 239.669 122.636C240.369 123.085 239.916 124.269 240.822 124.596C241.152 126.841 243.005 128.474 243.335 130.72C244.447 131.822 244.983 133.333 245.6 134.68C246.342 136.354 247.289 137.947 247.948 139.621C248.237 140.315 248.855 140.886 248.731 141.744C248.69 141.989 249.102 142.274 249.349 142.642C249.761 142.274 250.255 141.989 250.214 141.866C249.926 140.723 250.996 140.111 251.202 139.172C251.408 138.355 251.985 137.579 252.397 136.803C252.768 136.15 252.644 135.293 253.303 134.721C253.88 134.231 253.633 133.415 254.251 132.843C254.704 132.435 254.745 131.455 255.157 130.802C255.528 130.23 255.898 129.577 256.063 128.924C256.722 126.515 258.493 124.596 258.946 122.146C259.976 121.656 259.564 120.227 260.553 119.737C260.512 118.716 261.253 117.982 261.583 117.083C262.159 115.409 263.272 113.98 263.848 112.306C264.095 111.653 264.631 111.408 264.919 110.877C265.702 111.612 265.949 112.47 265.99 113.531C266.073 115.45 266.279 117.369 266.443 119.288C266.69 121.697 267.267 124.065 267.185 126.515C267.885 127.617 267.432 128.883 267.926 130.067C268.297 130.924 268.009 132.067 268.009 133.088C268.009 133.945 268.009 134.762 268.379 135.579C268.709 136.314 268.05 137.293 268.791 138.069C268.997 138.273 268.874 138.845 268.832 139.253C268.585 141.499 269.203 143.703 269.697 145.827C269.945 146.888 270.851 147.582 271.839 147.99C272.581 148.276 273.322 148.48 274.146 148.44C274.558 148.399 274.97 148.644 275.876 148.93C275.094 149.297 274.723 149.624 274.352 149.624C271.963 149.664 269.533 149.787 267.144 149.583C266.237 149.501 265.002 149.624 264.301 148.603C264.219 147.909 265.084 147.541 264.919 146.766C264.796 146.072 265.002 145.173 264.672 144.643C264.178 143.867 264.26 143.091 264.343 142.315C264.549 140.029 263.725 137.824 263.889 135.538C263.148 133.945 263.601 132.231 263.478 130.598C263.395 129.822 263.189 129.087 263.066 128.311C262.942 127.535 262.942 126.801 262.736 126.025C262.407 124.759 262.654 123.33 262.654 121.738C262.283 121.942 261.871 122.064 261.871 122.228C261.83 123.003 261.336 123.534 261.047 124.147C259.812 126.964 258.452 129.74 257.216 132.557C256.475 134.272 255.61 135.987 254.745 137.661C253.344 140.478 251.944 143.295 250.667 146.194C250.214 147.174 249.761 148.113 249.266 149.174C248.319 149.46 247.701 149.134 247.248 148.072C246.259 145.704 244.859 143.459 243.747 141.131C243.17 139.947 242.429 138.845 242.017 137.579C241.605 136.395 240.863 135.334 240.328 134.19C239.669 132.884 239.051 131.577 238.433 130.271C237.815 128.964 237.156 127.658 236.538 126.351C236.044 125.249 235.591 124.147 235.097 123.085C235.014 122.881 234.808 122.759 234.437 122.432C234.355 122.922 234.273 123.167 234.273 123.412C234.355 125.943 233.531 128.434 233.861 131.006C233.284 132.272 233.696 133.66 233.408 134.925C232.955 136.803 233.366 138.682 232.996 140.478C232.543 142.438 232.749 144.316 232.666 146.235C232.625 147.827 233.037 148.235 234.685 148.48C235.097 148.562 235.508 148.725 235.962 148.848C236.003 149.093 235.962 149.256 235.962 149.379Z"/><path fill="#fff" d="M152.343 149.664C151.436 149.991 150.819 149.705 150.201 149.052C147.523 146.317 144.681 143.744 142.086 140.927C139.944 138.6 137.637 136.436 135.578 134.068C133.724 131.945 131.706 129.985 129.77 127.944C129.069 127.25 128.493 126.433 127.875 125.657C127.257 124.882 126.31 124.392 125.98 123.371C125.774 122.799 124.909 122.84 124.662 122.105C124.497 121.575 123.879 121.207 123.385 120.799C123.097 120.554 123.385 119.656 122.396 120.105C122.396 121.207 122.396 122.432 122.396 123.616C122.396 125.127 122.438 126.596 122.396 128.107C122.355 129.577 122.973 130.924 122.849 132.435C122.726 133.905 122.808 135.415 122.808 136.926C122.808 138.437 122.767 139.906 122.808 141.417C122.849 142.234 123.097 143.05 123.179 143.908C123.261 144.724 123.179 145.541 123.179 146.357C123.179 147.378 124.785 148.521 125.692 148.562C126.392 148.562 127.216 148.317 127.71 149.297C127.381 149.46 127.051 149.787 126.721 149.787C123.097 149.828 119.472 149.828 115.806 149.828C115.806 149.379 115.806 149.052 115.806 148.725C116.506 148.317 117.289 148.725 118.112 148.276C119.019 147.786 119.225 147.092 119.472 146.317C119.595 145.867 119.513 145.377 119.513 144.888C119.513 133.782 119.513 122.718 119.513 111.572C120.254 111.327 120.913 111.286 121.49 111.939C122.685 113.286 123.92 114.593 125.115 115.981C126.268 117.288 127.834 118.227 128.616 119.86C129.646 120.268 130.017 121.289 130.758 122.024C133.765 125.045 136.772 128.025 139.573 131.21C140.85 132.68 142.333 133.986 143.528 135.497C144.928 137.334 146.617 138.845 148.223 140.519C148.471 140.805 148.594 141.213 148.841 141.499C149.088 141.785 149.418 141.948 149.995 142.356C149.995 141.662 150.118 141.213 149.954 140.927C149.377 139.906 149.583 138.845 149.583 137.824C149.583 132.598 149.542 127.331 149.624 122.105C149.624 120.962 149.13 119.941 149.171 118.798C149.212 117.655 149.253 116.471 149.171 115.328C149.088 114.389 148.429 113.695 147.812 113.123C146.741 112.878 145.546 113.531 144.722 112.511C144.887 112.143 145.093 111.817 145.299 111.367C148.677 111.857 152.137 112.225 155.556 111.367C155.762 111.735 155.926 112.062 156.132 112.47C155.679 113.491 154.608 112.837 153.867 113.123C153.043 113.858 152.878 114.756 152.878 115.777C152.919 120.799 153.208 125.862 152.796 130.883C152.219 137.171 152.59 143.418 152.343 149.664Z"/><path fill="#fff" d="M214.171 114.47C213.677 113.98 213.224 113.531 212.771 113.082C211.865 112.755 210.67 113.531 209.97 112.225C210.135 112.021 210.299 111.612 210.547 111.571C211.123 111.449 211.906 111.204 212.277 111.49C212.936 111.98 213.554 111.776 214.213 111.816C215.572 111.857 216.972 111.857 218.332 111.816C218.702 111.816 219.114 111.735 219.485 111.653C220.762 111.286 220.968 111.408 221.133 113C220.515 113 219.938 113 219.362 113C218.867 113.572 218.414 114.062 217.837 114.674C217.837 119.737 217.837 124.963 217.837 130.23C217.837 131.251 217.837 132.271 217.837 133.292C217.837 134.231 218.167 135.374 217.755 136.109C217.22 137.048 217.879 138.151 217.014 138.886C217.178 140.805 216.231 142.356 215.407 143.948C215.366 144.071 215.448 144.234 215.366 144.357C214.707 145.255 213.801 145.949 213.142 146.888C212.524 147.786 211.412 148.562 210.341 148.889C208.816 149.338 207.457 150.195 205.768 150.399C204.45 150.563 203.132 150.848 201.814 150.685C199.837 150.481 197.901 150.073 196.006 149.338C194.399 148.725 192.958 147.909 191.763 146.684C189.951 144.847 188.921 142.56 188.262 140.192C187.891 138.804 187.85 137.334 187.809 135.864C187.768 129.413 187.809 122.922 187.809 116.471C187.809 114.103 186.903 113.164 184.555 113.123C184.307 113.123 184.019 113.123 183.772 113.123C183.813 111.571 184.143 111.122 185.543 111.531C187.067 111.98 188.591 111.857 190.115 111.857C191.64 111.898 193.205 112.102 194.688 111.49C194.935 111.408 195.223 111.49 195.512 111.49C195.553 111.735 195.512 112.021 195.635 112.102C196.335 112.633 195.676 112.837 195.388 113.123C195.306 113.245 194.976 113.123 194.77 113.164C193.411 113.245 192.793 113.858 192.711 115.164C192.587 117.206 192.381 119.288 192.299 121.329C192.216 123.371 192.299 125.412 192.299 127.454C192.299 129.577 192.299 131.659 192.299 133.782C192.299 134.762 192.958 135.66 192.711 136.681C192.505 137.742 192.834 138.763 193.122 139.784C193.37 140.682 193.658 141.621 193.946 142.519C194.029 142.764 194.235 142.969 194.317 143.173C195.058 144.642 197.859 147.46 199.384 147.705C201.484 148.072 203.544 148.603 205.809 147.99C207.951 147.378 209.764 146.561 211.082 144.887C212.153 143.54 213.348 142.234 213.306 140.274C213.306 139.866 213.554 139.416 213.718 139.008C214.254 137.62 214.13 136.15 214.13 134.68C214.171 127.903 214.171 121.248 214.171 114.47Z"/><path fill="#fff" d="M72.8841 142.683C73.2548 142.274 73.6667 142.029 73.6667 141.784C73.7079 139.784 74.9848 138.232 75.5203 136.395C76.097 134.476 77.168 132.721 77.7859 130.802C78.4037 128.883 79.5159 127.127 79.8866 125.127C80.7105 124.351 80.5869 123.248 80.9988 122.309C81.4107 121.411 81.905 120.472 82.1522 119.533C82.4817 118.186 82.976 116.879 83.5939 115.613C83.6351 115.573 83.5939 115.491 83.5939 115.409C83.5527 114.756 83.6351 114.021 83.3879 113.45C83.0584 112.633 82.1934 113.082 81.5343 113C81.4107 112.96 81.2871 112.919 80.9988 112.796C81.1636 112.388 81.2459 111.898 81.4931 111.653C81.7402 111.408 82.2757 111.286 82.6053 111.408C84.6649 112.225 86.7656 111.694 88.8252 111.816C89.649 111.857 90.4317 111.531 91.2143 111.367C91.4203 111.816 91.5438 112.102 91.7086 112.511C91.5438 112.919 91.1319 113.082 90.5553 113.082C89.0724 113.041 88.1661 113.776 87.5071 115.083C86.3125 117.532 85.3239 120.023 84.3765 122.554C83.841 124.024 83.182 125.453 82.5641 126.923C81.2048 130.108 79.7219 133.251 78.3625 136.436C77.7035 137.987 77.3739 139.743 76.5089 141.172C75.8498 142.234 76.0146 143.622 74.9436 144.398C74.9024 145.663 73.955 146.561 73.5431 147.705C73.4195 148.113 73.0488 148.44 72.8841 148.848C72.3486 150.154 72.3898 150.154 70.948 150.195C69.5887 146.643 68.0646 143.091 66.6229 139.539C65.5108 136.722 64.481 133.905 63.2864 131.128C62.0095 128.107 60.8149 125.045 59.6204 122.024C58.6729 119.696 57.8079 117.328 56.6134 115.083C55.8719 113.695 54.6774 113.327 53.3592 113.041C52.9473 112.96 52.453 113.041 51.9999 113.041C51.9587 111.531 52.2882 111.082 53.6888 111.449C56.2426 112.143 58.8377 111.653 61.3504 111.816C61.6799 111.857 62.133 111.939 62.339 111.776C63.5747 110.837 64.275 111.571 64.9753 112.429C64.6045 113.082 63.9867 113 63.3688 113.041C62.339 113.082 61.9271 113.572 62.133 114.593C62.2154 115.083 62.2978 115.613 62.545 116.063C62.9981 116.798 63.1216 117.655 63.4512 118.349C63.8219 119.166 64.069 119.982 64.3986 120.799C65.6755 123.902 66.8289 127.005 67.8999 130.189C68.1882 131.006 68.4354 131.945 68.9297 132.598C69.6299 133.496 69.1356 134.844 70.2066 135.538C70.1654 136.681 70.8245 137.579 71.1952 138.6C71.5659 139.621 72.1426 140.56 72.019 141.744C72.0602 141.989 72.5133 142.274 72.8841 142.683Z"/><path fill="#fff" d="M177.923 149.174C177.676 149.419 177.511 149.705 177.387 149.705C173.515 149.746 169.602 149.746 165.73 149.705C165.565 149.705 165.442 149.419 165.153 149.134C165.524 148.929 165.854 148.725 166.224 148.562C166.801 148.276 167.501 148.113 167.872 147.664C168.243 147.215 168.325 146.521 168.449 145.867C168.531 145.459 168.449 145.051 168.449 144.642C168.572 142.724 168.449 140.805 168.778 138.886C169.108 137.048 168.243 135.007 168.531 133.17C169.108 129.454 168.861 125.78 168.819 122.105C168.778 119.574 168.366 117.042 168.531 114.47C168.037 114.021 167.501 113.572 166.801 112.96C166.471 112.96 165.854 112.96 165.277 112.96C165.318 111.408 165.606 111.163 166.801 111.531C167.048 111.612 167.295 111.776 167.542 111.776C169.684 111.776 171.785 111.816 173.927 111.776C174.215 111.776 174.504 111.531 174.833 111.449C175.245 111.367 175.657 111.286 176.028 111.408C176.316 111.49 176.522 111.816 176.769 111.98C176.11 113.041 176.11 113.041 174.421 113.041C174.339 113.164 174.298 113.245 174.215 113.368C173.392 114.715 173.392 114.715 173.392 116.512C173.392 125.984 173.392 135.415 173.392 144.887C173.392 145.622 173.433 146.276 173.762 146.97C174.215 147.95 174.792 148.521 175.863 148.562C177.222 148.644 177.222 148.644 177.923 149.174Z"/><path fill="#fff" d="M95.6217 148.97C95.9925 148.848 96.322 148.644 96.6927 148.603C97.8461 148.399 98.0932 147.99 98.464 146.888C98.9171 145.582 98.7111 144.275 98.8759 142.969C99.6173 135.701 99.123 128.393 99.2878 121.125C99.329 119.043 98.6287 117.043 98.8347 114.96C98.9171 114.103 97.9697 113.205 97.0634 113.082C96.6103 113.041 96.116 113.082 95.6629 113.082C95.6629 111.612 96.116 111.041 97.187 111.49C98.258 111.939 99.2878 111.776 100.318 111.817C101.224 111.857 102.089 111.857 102.995 111.817C103.778 111.776 104.519 111.939 105.343 111.49C105.878 111.163 106.826 111.245 107.155 112.429C106.826 112.633 106.496 112.96 106.126 113.041C104.231 113.409 103.819 113.776 103.819 115.45C103.819 125.576 103.819 135.701 103.819 145.827C103.819 147.378 105.013 148.48 106.62 148.562C107.155 148.603 107.732 148.358 108.103 148.93C108.226 149.134 108.309 149.379 108.474 149.746C106.249 149.746 104.19 149.746 102.171 149.746C100.4 149.746 98.5875 149.787 96.8163 149.746C96.4044 149.746 95.9925 149.501 95.5805 149.379C95.5393 149.256 95.5805 149.093 95.6217 148.97Z"/><path fill="#fff" d="M156.915 171.508C157.574 171.508 158.192 171.508 158.727 171.508C159.057 172.447 159.263 173.59 159.84 174.447C160.375 175.223 160.293 176.57 161.611 176.775C162.311 175.754 161.693 174.815 161.405 173.957C161.158 173.141 160.54 172.447 160.004 171.508C160.911 171.508 161.529 171.508 162.188 171.508C162.394 172.161 161.94 173.1 163.094 173.467C163.259 172.896 163.423 172.283 163.67 171.508C164.041 171.508 164.618 171.508 165.318 171.508C164.412 173.222 162.352 174.611 164.206 176.897C164.535 176.611 164.989 176.407 164.989 176.203C164.865 174.406 166.348 173.182 166.471 171.426C166.966 171.426 167.419 171.426 168.037 171.426C168.037 171.753 168.16 172.243 167.996 172.365C166.554 173.672 166.471 175.754 165.277 177.183C165.153 177.346 165.195 177.673 165.153 177.918C164.989 178.898 164.989 178.938 163.629 179.143C163.423 178.489 163.176 177.877 162.929 177.142C162.682 177.142 162.352 177.142 161.858 177.142C161.858 177.754 161.858 178.408 161.858 179.143C161.364 179.143 161.034 179.224 160.746 179.102C160.416 178.979 159.798 178.571 159.84 178.489C160.21 177.387 159.057 176.856 158.933 175.958C158.81 175.141 158.274 174.488 158.068 173.672C157.862 173.018 156.956 172.528 156.915 171.508Z"/><path fill="#fff" d="M188.262 171.426C189.621 171.426 190.939 171.508 192.216 171.385C193.452 171.263 194.358 171.793 195.264 172.487C196.212 173.182 196.706 174.733 196.212 175.958C195.923 176.652 196.088 177.387 195.429 178.122C194.482 179.142 193.287 179.306 192.134 179.592C191.228 179.796 190.239 179.673 189.292 179.632C188.468 179.592 188.262 179.224 188.509 178.367C188.591 177.999 188.674 177.591 188.674 177.224C188.715 176.08 188.715 174.937 188.674 173.753C188.591 173.059 188.426 172.365 188.262 171.426ZM190.362 172.283C190.362 174.121 190.362 175.917 190.362 177.264C190.774 177.999 191.063 178.448 191.31 178.857C192.216 178.53 192.916 178.244 193.617 177.958C194.399 177.632 194.44 176.734 194.77 176.121C195.058 175.509 195.058 174.651 194.358 173.916C193.905 173.427 193.246 173.018 193.04 172.283C192.134 172.283 191.269 172.283 190.362 172.283Z"/><path fill="#fff" d="M234.067 179.592C233.531 179.592 233.243 179.633 232.996 179.592C232.049 179.469 231.637 178.938 231.966 178.122C232.708 176.285 232.131 174.406 232.254 172.569C232.296 172.283 231.76 171.957 231.431 171.549C232.049 171.508 232.625 171.467 233.161 171.426C235.22 172.773 236.209 175.101 238.392 176.693C238.268 175.55 238.186 174.733 238.063 173.957C237.98 173.182 237.857 172.447 237.733 171.549C238.104 171.549 238.557 171.508 239.01 171.508C239.381 171.508 239.751 171.549 240.534 171.589C238.969 172.733 239.339 174.121 239.298 175.427C239.298 176.652 239.298 177.877 239.298 179.061C238.186 179.837 238.021 178.326 237.28 178.285C236.703 176.734 235.014 176.121 234.355 174.611C234.273 174.406 233.655 174.406 233.037 174.202C233.696 175.223 233.408 176.121 233.531 176.979C233.655 177.754 233.861 178.571 234.067 179.592Z"/><path fill="#fff" d="M179.2 171.549C180.147 171.304 181.218 171.712 182.083 171.059C182.948 171.549 184.184 171.508 184.513 172.733C184.555 172.896 184.719 173.059 184.843 173.304C184.637 173.712 184.349 174.202 184.019 174.815C184.431 175.264 184.884 175.713 185.296 176.203C185.296 176.775 185.296 177.305 185.296 177.836C185.008 178.122 184.678 178.408 184.431 178.734C183.772 179.428 182.948 179.755 181.96 179.673C181.671 179.633 181.424 179.714 181.136 179.673C180.559 179.592 179.9 179.959 179.447 179.347C179.035 178.857 179.653 178.489 179.612 177.999C179.529 176.448 179.612 174.896 179.57 173.304C179.529 172.692 179.323 172.12 179.2 171.549ZM181.259 178.204C181.671 178.326 182.001 178.857 182.536 178.53C182.907 178.285 183.442 178.122 183.648 177.795C184.143 176.979 183.566 176.285 181.96 175.509C181.218 176.285 181.218 176.285 181.259 178.204ZM181.259 174.815C181.754 174.651 182.248 174.611 182.536 174.366C183.236 173.794 182.66 173.018 182.866 172.365C182.207 172.365 181.671 172.365 181.218 172.365C181.259 173.182 181.259 173.917 181.259 174.815Z"/><path fill="#fff" d="M141.962 179.633C140.891 179.51 139.944 179.388 139.573 178.204C139.408 177.714 138.832 177.509 138.667 176.938C138.584 176.693 137.843 176.53 137.761 175.917C136.813 177.06 136.813 177.06 137.925 178.938C137.349 179.918 136.443 179.51 135.495 179.592C135.33 178.122 136.154 176.856 135.907 175.468C135.701 174.202 135.619 172.896 135.495 171.426C136.154 171.426 136.896 171.589 137.472 171.385C138.09 171.181 138.584 171.263 139.202 171.344C140.026 171.467 140.273 172.079 140.809 172.447C140.809 173.141 140.809 173.794 140.809 174.488C140.438 174.856 140.026 175.223 139.491 175.713C140.15 176.489 140.809 177.305 141.509 177.999C142.003 178.489 142.209 178.857 141.962 179.633ZM137.925 175.182C138.502 174.651 139.82 174.774 139.573 173.427C139.491 173.018 139.079 172.569 138.667 172.406C138.255 172.202 137.678 172.283 137.06 172.243C137.349 173.345 136.648 174.447 137.925 175.182Z"/><path fill="#fff" d="M226.941 177.795C226.323 177.346 226.57 176.734 226.57 176.04C227.229 176.04 227.847 176.04 228.547 176.04C228.547 177.06 228.547 178.04 228.547 179.061C227.105 180.041 225.375 179.837 223.893 179.551C221.009 179.02 219.897 174.692 221.915 172.61C222.286 172.202 222.698 171.834 223.069 171.467C224.181 171.344 225.293 171.14 226.405 171.099C226.941 171.099 227.517 171.304 228.053 171.548C228.63 171.793 228.712 172.365 228.588 172.937C228.053 173.263 227.6 173.182 227.188 172.692C226.24 171.589 225.046 171.834 224.016 172.324C223.357 172.651 222.698 173.508 222.492 174.243C222.245 175.141 222.327 176.203 222.945 177.06C223.151 177.346 223.439 177.55 223.687 177.795C225.087 179.143 225.499 179.143 226.941 177.795Z"/><path fill="#fff" d="M172.568 174.815C173.433 174.651 174.092 174.488 174.834 174.366C175.657 175.305 175.657 175.305 174.751 176.407C174.545 176.285 174.298 176.162 174.133 175.999C173.969 175.795 173.845 175.55 173.639 175.182C173.145 175.631 172.692 175.835 172.609 176.162C172.486 176.815 172.568 177.509 172.568 178.244C173.268 178.244 173.886 178.489 174.628 178.448C175.493 178.408 175.657 177.305 176.605 177.591C176.605 178.04 176.605 178.489 176.605 179.061C174.751 180.082 172.65 179.347 170.467 179.592C170.632 178.612 170.838 177.714 170.879 176.856C170.962 175.999 170.92 175.101 170.879 174.202C170.838 173.304 170.714 172.447 170.632 171.467C172.239 171.467 173.969 171.467 175.74 171.467C175.74 171.998 175.74 172.488 175.74 173.141C174.834 172.814 174.257 172.202 173.433 171.998C172.815 171.834 172.609 172.324 172.609 172.447C172.527 173.141 172.568 173.835 172.568 174.815Z"/><path fill="#fff" d="M106.661 177.346C107.032 177.714 107.362 178.04 107.691 178.367C108.227 178.367 108.762 178.367 109.339 178.367C109.792 177.918 110.286 177.428 110.78 176.897C110.78 175.55 110.78 174.202 110.78 172.977C110.451 172.487 110.163 172.079 109.751 171.508C110.78 171.508 111.563 171.508 112.593 171.508C111.028 173.631 111.769 175.917 111.563 178.326C110.986 178.693 110.286 179.183 109.545 179.551C108.638 180.041 107.279 179.877 106.538 179.224C105.549 178.367 104.89 177.387 105.014 175.958C105.096 175.141 105.055 174.325 105.014 173.508C104.972 172.896 104.808 172.243 104.684 171.467C105.343 171.222 106.126 171.426 107.073 171.303C106.373 173.427 106.785 175.386 106.661 177.346Z"/><path fill="#fff" d="M129.852 171.467C130.882 171.467 131.459 171.467 132.035 171.467C131.912 173.59 131.788 175.672 131.665 177.877C131.335 178.203 130.882 178.653 130.47 179.102C129.852 179.755 128.905 180.041 128.205 179.959C127.34 179.837 126.269 179.306 125.733 178.653C125.156 177.918 124.621 176.979 124.744 175.835C124.868 174.447 124.786 173.018 124.786 171.548C125.486 171.548 126.063 171.548 126.763 171.548C126.845 172.079 126.763 172.61 126.68 173.182C126.433 174.406 126.392 175.713 126.516 176.979C126.557 177.591 127.134 178.285 127.875 178.367C128.616 178.489 129.482 178.693 130.099 177.918C130.594 177.305 130.964 176.693 131.006 175.835C131.047 174.325 131.006 172.937 129.852 171.467Z"/><path fill="#fff" d="M118.113 176.529C117.659 177.142 117.206 177.632 116.959 178.203C116.383 179.551 116.424 179.592 114.776 179.469C114.941 179.02 114.982 178.571 115.229 178.244C115.641 177.714 116.135 177.224 116.671 176.815C117.33 176.285 117.536 175.672 117.206 174.774C116.259 173.957 115.476 172.896 114.735 171.548C115.518 171.548 116.094 171.548 116.794 171.548C116.877 171.875 116.959 172.283 117.165 172.692C117.33 173.018 117.536 173.345 117.783 173.671C118.071 174.08 118.73 173.998 119.019 173.549C119.101 173.386 119.266 173.222 119.266 173.059C119.266 171.957 120.007 171.508 120.914 171.14C121.284 171.508 121.737 171.753 121.161 172.528C120.872 172.896 120.625 173.549 120.213 173.712C119.472 173.957 119.431 174.611 118.895 175.223C120.007 176.489 121.078 177.795 122.232 179.142C121.696 180 120.79 179.714 119.966 179.592C119.76 179.551 119.513 179.102 119.431 178.816C119.307 177.958 119.019 177.264 118.113 176.529Z"/><path fill="#fff" d="M201.361 178.203C203.009 179.102 204.08 177.918 205.562 177.428C205.439 178.04 205.48 178.489 205.233 178.816C204.986 179.142 204.533 179.551 204.162 179.592C202.679 179.673 201.155 179.632 199.672 179.592C199.466 179.592 199.26 179.306 198.931 179.061C200.043 178.04 199.796 176.693 199.754 175.427C199.713 174.121 199.507 172.855 199.384 171.508C200.208 171.508 200.99 171.508 201.855 171.508C201.402 172.773 201.031 173.916 201.855 175.019C202.473 174.692 203.009 174.406 203.75 173.998C203.75 174.978 203.75 175.631 203.75 176.489C203.05 176.162 202.514 175.876 201.938 175.59C200.949 176.244 201.608 177.305 201.361 178.203Z"/><path fill="#fff" d="M207.746 177.264C208.858 178.122 209.558 179.142 210.794 178.285C211.206 177.346 210.794 176.529 209.97 176.121C209.352 175.795 209.146 175.141 208.446 174.937C207.704 174.733 208.24 173.835 207.746 173.386C207.622 173.263 207.952 172.61 208.199 172.324C209.27 170.895 210.464 170.732 212.524 171.671C212.524 171.957 212.524 172.202 212.524 172.528C212.359 172.569 212.153 172.692 211.988 172.651C211.494 172.528 210.959 172.406 210.588 172.12C209.97 171.671 209.723 172.406 209.27 172.406C209.311 172.773 209.27 173.182 209.476 173.508C209.723 173.916 210.094 174.243 210.464 174.529C212.112 175.835 212.112 175.835 212.936 177.591C212.483 178.693 211.37 179.102 210.505 179.796C210.423 179.877 210.299 179.959 210.217 180.041C209.805 179.306 208.899 180 208.405 179.469C208.158 179.183 207.334 179.428 207.54 178.653C206.798 178.081 207.704 177.877 207.746 177.264Z"/><path fill="#fff" d="M150.489 171.589C149.707 172.773 149.048 173.835 148.306 174.815C148.018 175.223 147.771 175.55 147.812 176.04C147.894 177.142 147.606 178.285 148.306 179.469C147.853 179.51 147.482 179.551 147.112 179.592C146.7 179.592 146.288 179.592 145.793 179.592C145.752 178.979 145.587 178.489 145.958 177.877C146.535 176.897 145.835 175.999 145.505 175.141C145.052 174.039 144.269 173.059 143.693 171.998C143.651 171.916 143.693 171.753 143.693 171.508C144.352 171.508 145.011 171.508 145.505 171.508C145.999 172.569 146.494 173.631 146.988 174.611C148.224 174.447 147.853 173.345 148.183 172.773C148.883 171.548 148.718 171.467 150.489 171.589Z"/><path fill="#fff" d="M96.1162 171.467C97.2284 171.467 97.9698 171.467 98.7937 171.467C98.0934 173.59 98.5465 175.672 98.3818 177.754C98.6289 177.999 98.8349 178.163 98.9996 178.367C99.4939 178.898 99.947 178.979 100.565 178.489C101.059 178.081 101.636 177.795 102.377 177.346C102.46 177.877 102.666 178.408 102.501 178.571C102.089 178.979 101.883 179.632 101.1 179.632C99.7823 179.592 98.5053 179.673 97.1872 179.592C96.7753 179.551 95.9103 179.388 96.7341 178.612C96.7341 176.57 96.7753 174.529 96.7341 172.528C96.7341 172.243 96.4457 171.998 96.1162 171.467Z"/><path fill="#fff" d="M215.448 171.467C216.231 171.467 216.972 171.467 217.879 171.467C217.219 173.059 217.508 174.692 217.467 176.325C217.467 176.938 217.261 177.632 217.837 178.203C218.126 178.489 217.631 179.387 217.261 179.551C216.808 179.714 215.819 179.51 215.613 179.143C215.572 179.061 215.489 178.938 215.489 178.857C216.19 177.183 215.695 175.427 215.778 173.712C215.819 173.059 215.613 172.365 215.448 171.467Z"/><path fill="#fff" d="M204.656 171.589C204.656 172.079 204.656 172.528 204.656 172.977C204.491 173.018 204.285 173.1 204.244 173.059C203.585 172.651 202.967 172.202 202.226 171.671C202.72 171.426 203.132 171.099 203.544 171.099C203.873 171.059 204.285 171.426 204.656 171.589Z"/></g><defs><clipPath id="clip0"><rect width="224" height="69" fill="#fff" transform="translate(52 111)"/></clipPath></defs></svg>