{
    "asset" : {
        "generator" : "Khronos glTF Blender I/O v1.4.40",
        "version" : "2.0"
    },
    "scene" : 0,
    "scenes" : [
        {
            "name" : "Scene",
            "nodes" : [
                1
            ]
        }
    ],
    "nodes" : [
        {
            "mesh" : 0,
            "name" : "Screen"
        },
        {
            "children" : [
                0
            ],
            "mesh" : 1,
            "name" : "t\u00e9l\u00e9",
            "scale" : [
                0.6619372367858887,
                0.7245667576789856,
                1
            ],
            "translation" : [
                0,
                0.8076621890068054,
                0
            ]
        }
    ],
    "materials" : [
        {
            "doubleSided" : true,
            "name" : "Black Base",
            "pbrMetallicRoughness" : {
                "baseColorFactor" : [
                    0,
                    0,
                    0,
                    1
                ],
                "metallicFactor" : 0.4545454680919647,
                "roughnessFactor" : 0.1581818163394928
            }
        },
        {
            "doubleSided" : true,
            "name" : "Mat\u00e9riau",
            "pbrMetallicRoughness" : {
                "baseColorFactor" : [
                    0.1553439348936081,
                    0.004018800798803568,
                    0,
                    1
                ],
                "metallicFactor" : 0.47999998927116394,
                "roughnessFactor" : 0
            }
        }
    ],
    "meshes" : [
        {
            "name" : "Cube.002",
            "primitives" : [
                {
                    "attributes" : {
                        "POSITION" : 0,
                        "NORMAL" : 1,
                        "TEXCOORD_0" : 2,
                        "TEXCOORD_1" : 3
                    },
                    "indices" : 4
                }
            ]
        },
        {
            "name" : "Cube.001",
            "primitives" : [
                {
                    "attributes" : {
                        "POSITION" : 5,
                        "NORMAL" : 6,
                        "TEXCOORD_0" : 7,
                        "TEXCOORD_1" : 8
                    },
                    "indices" : 9,
                    "material" : 0
                },
                {
                    "attributes" : {
                        "POSITION" : 10,
                        "NORMAL" : 11,
                        "TEXCOORD_0" : 12,
                        "TEXCOORD_1" : 13
                    },
                    "indices" : 14,
                    "material" : 1
                }
            ]
        }
    ],
    "accessors" : [
        {
            "bufferView" : 0,
            "componentType" : 5126,
            "count" : 420,
            "max" : [
                -0.8510097861289978,
                0.8568130135536194,
                0.4114795923233032
            ],
            "min" : [
                -0.860383152961731,
                -0.8568130135536194,
                -0.873740017414093
            ],
            "type" : "VEC3"
        },
        {
            "bufferView" : 1,
            "componentType" : 5126,
            "count" : 420,
            "type" : "VEC3"
        },
        {
            "bufferView" : 2,
            "componentType" : 5126,
            "count" : 420,
            "type" : "VEC2"
        },
        {
            "bufferView" : 3,
            "componentType" : 5126,
            "count" : 420,
            "type" : "VEC2"
        },
        {
            "bufferView" : 4,
            "componentType" : 5123,
            "count" : 1254,
            "type" : "SCALAR"
        },
        {
            "bufferView" : 5,
            "componentType" : 5126,
            "count" : 3953,
            "max" : [
                1,
                1,
                1.0055780410766602
            ],
            "min" : [
                -1.0323207378387451,
                -1.0903253555297852,
                -1
            ],
            "type" : "VEC3"
        },
        {
            "bufferView" : 6,
            "componentType" : 5126,
            "count" : 3953,
            "type" : "VEC3"
        },
        {
            "bufferView" : 7,
            "componentType" : 5126,
            "count" : 3953,
            "type" : "VEC2"
        },
        {
            "bufferView" : 8,
            "componentType" : 5126,
            "count" : 3953,
            "type" : "VEC2"
        },
        {
            "bufferView" : 9,
            "componentType" : 5123,
            "count" : 18528,
            "type" : "SCALAR"
        },
        {
            "bufferView" : 10,
            "componentType" : 5126,
            "count" : 505,
            "max" : [
                -0.2874816358089447,
                -0.7782286405563354,
                1.0055780410766602
            ],
            "min" : [
                -0.8849397897720337,
                -0.8464387059211731,
                1.0055779218673706
            ],
            "type" : "VEC3"
        },
        {
            "bufferView" : 11,
            "componentType" : 5126,
            "count" : 505,
            "type" : "VEC3"
        },
        {
            "bufferView" : 12,
            "componentType" : 5126,
            "count" : 505,
            "type" : "VEC2"
        },
        {
            "bufferView" : 13,
            "componentType" : 5126,
            "count" : 505,
            "type" : "VEC2"
        },
        {
            "bufferView" : 14,
            "componentType" : 5123,
            "count" : 1446,
            "type" : "SCALAR"
        }
    ],
    "bufferViews" : [
        {
            "buffer" : 0,
            "byteLength" : 5040,
            "byteOffset" : 0
        },
        {
            "buffer" : 0,
            "byteLength" : 5040,
            "byteOffset" : 5040
        },
        {
            "buffer" : 0,
            "byteLength" : 3360,
            "byteOffset" : 10080
        },
        {
            "buffer" : 0,
            "byteLength" : 3360,
            "byteOffset" : 13440
        },
        {
            "buffer" : 0,
            "byteLength" : 2508,
            "byteOffset" : 16800
        },
        {
            "buffer" : 0,
            "byteLength" : 47436,
            "byteOffset" : 19308
        },
        {
            "buffer" : 0,
            "byteLength" : 47436,
            "byteOffset" : 66744
        },
        {
            "buffer" : 0,
            "byteLength" : 31624,
            "byteOffset" : 114180
        },
        {
            "buffer" : 0,
            "byteLength" : 31624,
            "byteOffset" : 145804
        },
        {
            "buffer" : 0,
            "byteLength" : 37056,
            "byteOffset" : 177428
        },
        {
            "buffer" : 0,
            "byteLength" : 6060,
            "byteOffset" : 214484
        },
        {
            "buffer" : 0,
            "byteLength" : 6060,
            "byteOffset" : 220544
        },
        {
            "buffer" : 0,
            "byteLength" : 4040,
            "byteOffset" : 226604
        },
        {
            "buffer" : 0,
            "byteLength" : 4040,
            "byteOffset" : 230644
        },
        {
            "buffer" : 0,
            "byteLength" : 2892,
            "byteOffset" : 234684
        }
    ],
    "buffers" : [
        {
            "byteLength" : 237576,
            "uri" : "data:application/octet-stream;base64,"
        }
    ]
}
