<svg xmlns="http://www.w3.org/2000/svg" width="55" height="42" fill="none" viewBox="0 0 55 42"><g clip-path="url(#clip0)"><path fill="#fff" d="M22.2 41.2C26.4 37.1 30.6 33 35 28.6C33.7001 28.4 32.8 28.4 31.8 28.6C31.5 28.6 31.1 28.9999 30.9 29.2999C29.3 30.7999 27.8 32.2999 26.2 33.7999C25.9 34.0999 25.6 34.2999 25.3 34.5999C25 34.2999 24.7 34.0999 24.4 33.7999C22.9 32.3999 21.5 31 20.1 29.5C19.5 28.8 18.8 28.5 17.8 28.6C12.4 28.6 7.00005 28.6 1.50005 28.6C1.00005 28.6 0.600048 28.6 0.100048 28.6C-0.0999518 28.1 -0.0999517 27.8 0.400048 27.7C0.800048 27.7 1.10005 27.7 1.50005 27.7C18.6 27.7 35.7001 27.7 52.8 27.7C53.1 27.7 53.4 27.7 53.6 27.7C53.9 27.7 54.3 27.7 54.3 28.1C54.3 28.6 54 28.5 53.6 28.6C52.5 28.6 51.5 28.7 50.4001 28.6C49.3001 28.5 48.5 28.9 47.7001 29.7C44 33.4 40.2001 37.0999 36.5 40.7999C35.9001 41.4 35.3 41.5999 34.5 41.5999C30.8 41.5999 27 41.5999 23.3 41.5999C22.9 41.5999 22.5 41.5999 22.2 41.5999C22.2 41.2999 22.2 41.2 22.2 41.2Z"/><path fill="#fff" d="M0.0998901 14C-0.000109926 13.4 0.39989 13.4 0.69989 13.4C1.59989 13.4 2.59989 13.3 3.49989 13.4C4.49989 13.5 5.19989 13.2 5.89989 12.4C9.69989 8.5 13.6999 4.7 17.4999 0.8C18.0999 0.2 18.6999 0 19.4999 0C23.1999 0 26.7999 0 30.4999 0C30.8999 0 31.2999 0 31.6999 0.1C31.6999 0.2 31.7999 0.3 31.7999 0.3C27.4999 4.5 23.2999 8.8 18.9999 13C18.9999 13.1 19.0999 13.2 19.0999 13.3C20.0999 13.3 21.1999 13.3 22.1999 13.3C22.4999 13.3 22.7999 12.9 22.9999 12.7C24.5999 11.2 26.0999 9.6 27.6999 8C27.9999 7.7 28.2999 7.5 28.5999 7.2C28.8999 7.5 29.1999 7.7 29.3999 7.9C30.9999 9.4 32.5999 11 34.0999 12.5C34.6999 13.1 35.2999 13.4 36.1999 13.4C41.6999 13.4 47.1999 13.4 52.6999 13.4C53.0999 13.4 53.4999 13.4 53.8999 13.5C53.9999 13.5 54.0999 13.8 54.2999 14C53.3999 14.1 1.59989 14.2 0.0998901 14Z"/><path fill="#fff" d="M31.8999 23.7C31.8999 21.6 31.8999 19.7 31.8999 17.8C32.9999 17.6 34.0999 17.6 35.0999 17.9C35.8999 18.1 36.4999 18.7 36.7999 19.6C37.4999 21.9 36.1999 23.7 33.7999 23.7C33.0999 23.8 32.4999 23.7 31.8999 23.7ZM33.2999 19.1C33.2999 20.2 33.2999 21.2 33.2999 22.3C34.5999 22.5 35.0999 22.2 35.0999 21C35.0999 20.8 35.0999 20.5 35.0999 20.3C34.9999 19.2 34.5999 18.9 33.2999 19.1Z"/><path fill="#fff" d="M42.4 17.9001C42.6 17.8001 42.6 17.8001 42.7 17.8001C44.5 17.6001 44.5 17.6001 45.1 19.3001C45.6 20.7001 46 22.1001 46.5 23.7001C45.9 23.7001 45.4 23.7001 44.9 23.7001C44.8 23.4001 44.6 23.1001 44.5 22.7001C43.9 22.7001 43.3 22.7001 42.6 22.7001C42.4 23.0001 42.3 23.4001 42.1 23.8001C41.6 23.8001 41.2 23.8001 40.5 23.8001C41.2 21.6001 41.8 19.7001 42.4 17.9001ZM43.6 19.3001C43.5 19.3001 43.4 19.3001 43.3 19.4001C43.1 20.0001 43 20.7001 42.8 21.4001C43.3 21.4001 43.6 21.4001 44.1 21.4001C43.9 20.6001 43.8 19.9001 43.6 19.3001Z"/><path fill="#fff" d="M15.8 23.6001C15.8 23.2001 15.8 22.9001 15.8 22.5001C17.2 22.8001 17.2 22.8001 18.1 22.6001C18 21.9001 17.4 21.8001 17 21.6001C16.3 21.3001 15.8 20.8001 15.8 19.9001C15.8 19.0001 16.2 18.5001 17 18.2001C17.9 17.9001 18.8 18.0001 19.8 18.4001C19.7 18.7001 19.6 19.1001 19.5 19.4001C18.8 19.5001 18.1 18.9001 17.3 19.5001C17.6 19.7001 17.7 20.0001 18 20.1001C18.4 20.3001 18.8 20.5001 19.1 20.7001C19.7 21.1001 20 21.7001 19.9 22.4001C19.8 23.2001 19.3 23.7001 18.5 23.8001C17.6 24.1001 16.7 24.1001 15.8 23.6001Z"/><path fill="#fff" d="M27.7999 18.3999C27.6999 18.6999 27.6 18.9999 27.5 19.2999C26.8 19.2999 26.2 19.1999 25.6 19.1999C25.3 19.6999 25.6 19.8999 25.9 20.0999C26.3 20.2999 26.7 20.4999 27.1 20.7999C27.7 21.1999 27.9999 21.7999 27.9 22.4999C27.8 23.2999 27.3 23.6999 26.5 23.8999C25.7 24.0999 24.7999 23.9999 23.7999 23.4999C23.7999 23.2999 23.7 23.0999 23.7 22.7999C23.7 22.6999 23.7999 22.4999 23.7999 22.2999C24.4999 22.3999 25.3 22.6999 26.1 22.3999C26 21.6999 25.4 21.5999 25 21.3999C24 20.8999 23.5999 20.2999 23.7999 19.3999C23.8999 18.9999 24.2 18.4999 24.5 18.2999C25.6 17.7999 26.6999 17.7999 27.7999 18.3999Z"/><path fill="#fff" d="M11.6001 19.3001C10.5001 18.9001 9.6001 18.8001 9.0001 19.7001C8.4001 20.5001 8.4001 21.4001 8.9001 22.3001C9.5001 23.5001 10.6001 22.9001 11.6001 22.8001C11.6001 23.2001 11.6001 23.5001 11.6001 23.9001C10.2001 24.6001 8.7001 24.4001 7.9001 23.4001C7.0001 22.4001 7.0001 20.0001 7.9001 18.8001C8.5001 17.9001 10.3001 17.3001 12.0001 18.2001C11.9001 18.5001 11.8001 18.8001 11.6001 19.3001Z"/></g><defs><clipPath id="clip0"><rect width="54.3" height="41.5" fill="#fff"/></clipPath></defs></svg>