<svg xmlns="http://www.w3.org/2000/svg" width="32" height="32" fill="none" viewBox="0 0 32 32"><path fill="#fff" d="M15.36 0C15.784 0 16.216 0 16.64 0C17.224 0.056 17.8 0.136 18.384 0.176C20.336 0.304 22.232 0.688 24.056 1.384C26.68 2.384 28.704 4.096 30.008 6.608C31.128 8.768 31.624 11.096 31.824 13.504C31.872 14.128 31.944 14.744 32 15.368C32 15.792 32 16.224 32 16.648C31.968 16.872 31.92 17.088 31.912 17.312C31.792 19.592 31.464 21.832 30.648 23.984C29.68 26.536 28.072 28.536 25.68 29.856C23.464 31.088 21.04 31.608 18.544 31.816C17.912 31.872 17.28 31.936 16.64 32C16.216 32 15.784 32 15.36 32C15.16 31.968 14.968 31.928 14.768 31.912C12.744 31.808 10.744 31.544 8.8 30.92C6.648 30.232 4.768 29.128 3.304 27.376C1.376 25.072 0.64 22.304 0.256 19.408C0.144 18.496 0.088 17.568 0 16.64C0 16.16 0 15.68 0 15.2C0.032 15.016 0.08 14.84 0.088 14.656C0.208 12.384 0.544 10.16 1.352 8.024C2.32 5.464 3.944 3.456 6.352 2.128C8.56 0.912 10.968 0.392 13.456 0.184C14.096 0.128 14.728 0.064 15.36 0ZM15.984 24.008C16.392 24.096 16.56 23.984 16.616 23.52C16.752 22.32 17.16 21.192 17.832 20.176C19.136 18.224 20.944 17.048 23.264 16.648C24.08 16.504 24.072 16.496 24.04 15.736C24.032 15.52 23.96 15.44 23.736 15.408C23.24 15.336 22.728 15.264 22.248 15.12C19.168 14.216 16.912 11.488 16.592 8.312C16.568 8.064 16.496 7.944 16.232 7.968C16.088 7.984 15.936 7.984 15.792 7.968C15.512 7.936 15.44 8.064 15.408 8.336C15.264 9.584 14.872 10.752 14.184 11.8C12.856 13.816 10.984 14.984 8.608 15.384C7.952 15.496 7.952 15.512 7.968 16.2C7.968 16.216 7.968 16.224 7.968 16.24C7.952 16.464 8.04 16.56 8.28 16.592C8.792 16.664 9.312 16.736 9.8 16.896C12.992 17.968 14.84 20.2 15.384 23.504C15.464 23.92 15.552 24.128 15.984 24.008Z"/></svg>